<svg width="26" height="26" viewBox="0 0 26 26" fill="none" xmlns="http://www.w3.org/2000/svg">
<circle cx="13" cy="13" r="13" fill="white"/>
<path d="M16.2103 6H9.78967C7.70001 6 6 7.70001 6 9.78967V16.2104C6 18.3 7.70001 20 9.78967 20H16.2104C18.3 20 20 18.3 20 16.2104V9.78967C20 7.70001 18.3 6 16.2103 6V6ZM13 16.828C10.8892 16.828 9.17198 15.1108 9.17198 13C9.17198 10.8892 10.8892 9.17198 13 9.17198C15.1108 9.17198 16.828 10.8892 16.828 13C16.828 15.1108 15.1108 16.828 13 16.828ZM16.9195 10.0747C16.2958 10.0747 15.7884 9.56739 15.7884 8.94361C15.7884 8.31983 16.2958 7.81237 16.9195 7.81237C17.5433 7.81237 18.0508 8.31983 18.0508 8.94361C18.0508 9.56739 17.5433 10.0747 16.9195 10.0747Z" fill="#32BDD6"/>
<path d="M12.9995 9.99268C11.3413 9.99268 9.99219 11.3417 9.99219 12.9999C9.99219 14.6581 11.3413 16.0072 12.9995 16.0072C14.6577 16.0072 16.0067 14.6581 16.0067 12.9999C16.0067 11.3417 14.6577 9.99268 12.9995 9.99268Z" fill="#32BDD6"/>
<path d="M16.9198 8.6333C16.7487 8.6333 16.6094 8.77258 16.6094 8.94369C16.6094 9.11481 16.7487 9.25409 16.9198 9.25409C17.091 9.25409 17.2303 9.11491 17.2303 8.94369C17.2303 8.77248 17.091 8.6333 16.9198 8.6333Z" fill="#32BDD6"/>
</svg>
