<svg width="26" height="26" viewBox="0 0 26 26" fill="none" xmlns="http://www.w3.org/2000/svg">
<path d="M13 26C20.1797 26 26 20.1797 26 13C26 5.8203 20.1797 0 13 0C5.8203 0 0 5.8203 0 13C0 20.1797 5.8203 26 13 26Z" fill="white"/>
<path d="M20.5804 16.7424L18.3429 14.5095C17.5438 13.7121 16.1853 14.0311 15.8656 15.0677C15.6259 15.7855 14.8267 16.1842 14.1075 16.0247C12.5093 15.626 10.3517 13.5526 9.95209 11.878C9.71236 11.1602 10.1918 10.3628 10.911 10.1236C11.9499 9.8046 12.2696 8.44895 11.4704 7.6515L9.23288 5.41866C8.59358 4.86045 7.63464 4.86045 7.07525 5.41866L5.55691 6.9338C4.03858 8.52869 5.71674 12.7551 9.47262 16.5031C13.2285 20.2511 17.4639 22.0055 19.0621 20.4106L20.5804 18.8955C21.1399 18.2575 21.1399 17.3006 20.5804 16.7424Z" fill="#32BDD6"/>
</svg>
