<svg width="26" height="26" viewBox="0 0 26 26" fill="none" xmlns="http://www.w3.org/2000/svg">
<circle cx="13" cy="13" r="13" fill="white"/>
<path d="M19.7515 13.0726C19.7515 9.437 16.7625 6.48913 13.0744 6.48913C12.6859 6.48913 12.3044 6.52238 11.9325 6.58538C11.3358 6.21525 10.6296 6 9.87275 6C7.73338 6 6 7.70887 6 9.8185C6 10.5229 6.19425 11.1818 6.532 11.7496C6.44362 12.1766 6.39638 12.6203 6.39638 13.0726C6.39638 16.7091 9.38625 19.657 13.0735 19.657C13.4917 19.657 13.8995 19.6185 14.2968 19.5468C14.8428 19.8355 15.4649 20 16.1281 20C18.2666 20 20 18.2902 20 16.1824C20 15.5734 19.8547 14.9976 19.5975 14.4866C19.699 14.0299 19.7515 13.5582 19.7515 13.0726Z" fill="#32BDD6"/>
<path d="M16.4992 16.219C16.1903 16.6504 15.7344 16.9917 15.142 17.2332C14.5567 17.4729 13.8558 17.5963 13.056 17.5963C12.097 17.5963 11.2929 17.43 10.6647 17.101C10.2158 16.8622 9.84655 16.5393 9.56567 16.1385C9.2813 15.736 9.13867 15.3362 9.13867 14.9485C9.13867 14.7088 9.2323 14.4988 9.41692 14.3282C9.5998 14.1575 9.8343 14.0727 10.1143 14.0727C10.3435 14.0727 10.5413 14.14 10.7023 14.2739C10.8554 14.4034 10.9875 14.5942 11.0934 14.8383C11.2115 15.106 11.3402 15.3318 11.4758 15.5077C11.6079 15.68 11.796 15.8235 12.0367 15.9364C12.279 16.0484 12.6054 16.107 13.0062 16.107C13.5583 16.107 14.0115 15.9898 14.351 15.7614C14.6844 15.5383 14.8454 15.2688 14.8454 14.9398C14.8454 14.6808 14.7605 14.476 14.5882 14.3159C14.4062 14.1479 14.1664 14.0175 13.8759 13.9274C13.5723 13.8347 13.1602 13.7332 12.6509 13.6282C11.957 13.482 11.3682 13.3097 10.9009 13.1119C10.4223 12.9107 10.0355 12.6324 9.7538 12.285C9.4668 11.9298 9.32155 11.4862 9.32155 10.9647C9.32155 10.4677 9.4738 10.0197 9.7748 9.63291C10.0732 9.24879 10.5089 8.94866 11.0715 8.74479C11.6254 8.54266 12.2843 8.44116 13.0307 8.44116C13.6265 8.44116 14.1507 8.50941 14.589 8.64416C15.0292 8.77891 15.4002 8.96091 15.6915 9.18579C15.9855 9.41329 16.2043 9.65391 16.3408 9.90591C16.479 10.1597 16.5499 10.4125 16.5499 10.6567C16.5499 10.892 16.458 11.1064 16.276 11.2919C16.0923 11.4792 15.8613 11.5737 15.59 11.5737C15.3433 11.5737 15.149 11.5133 15.0152 11.3969C14.89 11.2875 14.7597 11.1169 14.6162 10.8737C14.4499 10.5622 14.2478 10.3163 14.0168 10.1422C13.7919 9.97329 13.4174 9.88929 12.9012 9.88929C12.4234 9.88929 12.0332 9.98379 11.7444 10.171C11.4662 10.3504 11.3305 10.5569 11.3305 10.8019C11.3305 10.9515 11.3743 11.0767 11.4644 11.1843C11.5589 11.2998 11.6928 11.3987 11.8625 11.4827C12.0375 11.5693 12.2187 11.6393 12.3998 11.6883C12.5853 11.739 12.8959 11.8152 13.3238 11.9123C13.8645 12.026 14.3607 12.1547 14.7999 12.2938C15.2453 12.4329 15.6285 12.6053 15.9435 12.8074C16.2629 13.013 16.5158 13.2755 16.696 13.5905C16.8763 13.9082 16.9673 14.2975 16.9673 14.7508C16.9664 15.2924 16.8089 15.7868 16.4992 16.219Z" fill="white"/>
</svg>
