<svg width="26" height="26" viewBox="0 0 26 26" fill="none" xmlns="http://www.w3.org/2000/svg">
<path d="M13 26C20.1797 26 26 20.1797 26 13C26 5.8203 20.1797 0 13 0C5.8203 0 0 5.8203 0 13C0 20.1797 5.8203 26 13 26Z" fill="white"/>
<path d="M14.6461 4.77148H11.3547C8.18672 4.77148 5.59473 7.36348 5.59473 10.5315V13C5.59473 15.2218 6.89072 17.2583 8.88615 18.2046V20.9612C8.88615 21.208 9.19472 21.3315 9.35929 21.1463L11.7456 18.76H14.6461C17.8141 18.76 20.4061 16.168 20.4061 13V10.5315C20.4061 7.36348 17.8141 4.77148 14.6461 4.77148ZM16.8061 15.5715L15.9627 16.3943C15.0781 17.2583 12.7947 16.2709 10.7787 14.2138C8.76272 12.1566 7.87815 9.85262 8.72158 8.98862L9.54443 8.16577C9.853 7.8572 10.3673 7.87777 10.717 8.18634L11.9101 9.42062C12.3421 9.85262 12.157 10.5932 11.6016 10.7578C11.2107 10.8812 10.9433 11.3132 11.0667 11.704C11.2724 12.6092 12.4244 13.7612 13.2884 13.9875C13.6793 14.0698 14.1113 13.864 14.2553 13.4732C14.4404 12.9178 15.181 12.7532 15.5924 13.1852L16.7856 14.4195C17.1147 14.7075 17.1147 15.2218 16.8061 15.5715ZM13.741 8.68005C13.6587 8.68005 13.5764 8.68005 13.4941 8.70062C13.3501 8.72119 13.2061 8.59777 13.1856 8.45377C13.165 8.30977 13.2884 8.16577 13.4324 8.1452C13.5353 8.12462 13.6381 8.12462 13.741 8.12462C15.2427 8.12462 16.477 9.35891 16.477 10.8606C16.477 10.9635 16.477 11.0663 16.4564 11.1692C16.4358 11.3132 16.2918 11.4366 16.1478 11.416C16.0038 11.3955 15.8804 11.2515 15.901 11.1075C15.901 11.0252 15.9216 10.9429 15.9216 10.8606C15.9421 9.66748 14.9547 8.68005 13.741 8.68005ZM15.3867 10.8812C15.3867 11.0252 15.2633 11.1486 15.1193 11.1486C14.9753 11.1486 14.8518 11.0252 14.8518 10.8812C14.8518 10.2846 14.3581 9.79091 13.7616 9.79091C13.6176 9.79091 13.4941 9.66748 13.4941 9.52348C13.4941 9.37948 13.6176 9.25605 13.7616 9.25605C14.6461 9.23548 15.3867 9.97605 15.3867 10.8812ZM17.485 11.7658C17.4438 11.9098 17.2998 12.0126 17.1353 11.9715C16.9913 11.9303 16.909 11.7863 16.9501 11.6423C17.0118 11.3955 17.0324 11.1486 17.0324 10.8812C17.0324 9.07091 15.5513 7.58977 13.741 7.58977C13.6587 7.58977 13.5764 7.58977 13.4941 7.58977C13.3501 7.58977 13.2061 7.48691 13.2061 7.34291C13.2061 7.19891 13.309 7.05491 13.453 7.05491C13.5558 7.05491 13.6587 7.03434 13.741 7.03434C15.8598 7.03434 17.5878 8.76234 17.5878 10.8812C17.5878 11.1692 17.5467 11.4778 17.485 11.7658Z" fill="#32BDD6"/>
</svg>
