<svg width="26" height="26" viewBox="0 0 26 26" fill="none" xmlns="http://www.w3.org/2000/svg">
<path d="M13 26C20.1797 26 26 20.1797 26 13C26 5.8203 20.1797 0 13 0C5.8203 0 0 5.8203 0 13C0 20.1797 5.8203 26 13 26Z" fill="white"/>
<path fill-rule="evenodd" clip-rule="evenodd" d="M12.5089 18.7016H13.5293C13.5293 18.7016 13.8375 18.6677 13.9948 18.4981C14.1397 18.3424 14.135 18.0499 14.135 18.0499C14.135 18.0499 14.1151 16.6808 14.7505 16.4792C15.3769 16.2806 16.1813 17.8024 17.0338 18.3876C17.6785 18.8304 18.1684 18.7333 18.1684 18.7333L20.448 18.7016C20.448 18.7016 21.6405 18.6281 21.0751 17.6905C21.0287 17.6138 20.7458 16.9969 19.3802 15.7293C17.9508 14.4026 18.1422 14.6172 19.864 12.3223C20.9126 10.9247 21.3319 10.0714 21.2009 9.70598C21.076 9.35791 20.3048 9.44991 20.3048 9.44991L17.7381 9.4659C17.7381 9.4659 17.5478 9.43994 17.4067 9.5243C17.2688 9.60703 17.18 9.79983 17.18 9.79983C17.18 9.79983 16.7738 10.8813 16.232 11.8011C15.0891 13.7419 14.6321 13.8443 14.4453 13.7238C14.0108 13.443 14.1193 12.5955 14.1193 11.9935C14.1193 10.1127 14.4045 9.32848 13.5638 9.12548C13.2848 9.05804 13.0795 9.01355 12.3659 9.00636C11.4501 8.99686 10.6749 9.00914 10.236 9.2242C9.94405 9.36718 9.7188 9.68582 9.85599 9.70412C10.0256 9.72683 10.4098 9.80771 10.6135 10.0851C10.8766 10.4429 10.8673 11.2466 10.8673 11.2466C10.8673 11.2466 11.0184 13.4606 10.5144 13.7357C10.1684 13.9243 9.69377 13.5391 8.67482 11.7784C8.15272 10.8765 7.75853 9.87955 7.75853 9.87955C7.75853 9.87955 7.68252 9.69323 7.54696 9.59359C7.38242 9.47285 7.15254 9.43438 7.15254 9.43438L4.7135 9.45037C4.7135 9.45037 4.34736 9.46057 4.21295 9.61977C4.09338 9.76136 4.20345 10.0543 4.20345 10.0543C4.20345 10.0543 6.11297 14.5217 8.27508 16.773C10.2576 18.8371 12.5089 18.7016 12.5089 18.7016Z" fill="#32BDD6"/>
</svg>
