<svg width="26" height="26" viewBox="0 0 26 26" fill="none" xmlns="http://www.w3.org/2000/svg">
<path d="M13 26C20.1797 26 26 20.1797 26 13C26 5.8203 20.1797 0 13 0C5.8203 0 0 5.8203 0 13C0 20.1797 5.8203 26 13 26Z" fill="white"/>
<path d="M13.002 5H12.998C8.587 5 5 8.588 5 13C5 14.75 5.564 16.372 6.523 17.689L5.526 20.661L8.601 19.678C9.866 20.516 11.375 21 13.002 21C17.413 21 21 17.411 21 13C21 8.589 17.413 5 13.002 5ZM17.657 16.297C17.464 16.842 16.698 17.294 16.087 17.426C15.669 17.515 15.123 17.586 13.285 16.824C10.934 15.85 9.42 13.461 9.302 13.306C9.189 13.151 8.352 12.041 8.352 10.893C8.352 9.745 8.935 9.186 9.17 8.946C9.363 8.749 9.682 8.659 9.988 8.659C10.087 8.659 10.176 8.664 10.256 8.668C10.491 8.678 10.609 8.692 10.764 9.063C10.957 9.528 11.427 10.676 11.483 10.794C11.54 10.912 11.597 11.072 11.517 11.227C11.442 11.387 11.376 11.458 11.258 11.594C11.14 11.73 11.028 11.834 10.91 11.98C10.802 12.107 10.68 12.243 10.816 12.478C10.952 12.708 11.422 13.475 12.114 14.091C13.007 14.886 13.731 15.14 13.99 15.248C14.183 15.328 14.413 15.309 14.554 15.159C14.733 14.966 14.954 14.646 15.179 14.331C15.339 14.105 15.541 14.077 15.753 14.157C15.969 14.232 17.112 14.797 17.347 14.914C17.582 15.032 17.737 15.088 17.794 15.187C17.85 15.286 17.85 15.751 17.657 16.297Z" fill="#32BDD6"/>
</svg>
