<svg width="31" height="41" viewBox="0 0 31 41" fill="none" xmlns="http://www.w3.org/2000/svg">
<path fill-rule="evenodd" clip-rule="evenodd" d="M15.4992 40.5C12.9164 36.4254 10.3337 33.4627 7.75098 30.1904L16.2309 15.5669L16.3386 15.3768V0.5C24.3411 0.922995 30.6054 7.41721 30.5938 15.2783C30.5938 18.614 29.1589 21.6119 27.3295 24.469C23.3837 30.697 19.445 34.279 15.4992 40.5Z" fill="#9CE1ED"/>
<path fill-rule="evenodd" clip-rule="evenodd" d="M0.405273 14.9828C0.552129 7.23347 6.77735 0.912028 14.6676 0.5V14.9546L0.405273 14.9828Z" fill="#32BDD6"/>
<path fill-rule="evenodd" clip-rule="evenodd" d="M2.27174 22.0769C1.34501 20.3773 0.739779 18.5272 0.485352 16.616H11.8063L2.27174 22.0769Z" fill="#D6EC30"/>
<path fill-rule="evenodd" clip-rule="evenodd" d="M6.63951 28.7692C5.6423 27.4533 4.64508 26.0458 3.64786 24.4765C3.44698 24.1598 3.25327 23.8361 3.05957 23.5124L12.9959 17.7981L6.63951 28.7692Z" fill="#014A65"/>
<path fill-rule="evenodd" clip-rule="evenodd" d="M15.501 9.39526H15.9099H15.9673C16.5805 9.44111 17.1817 9.58616 17.7466 9.82454C17.8344 9.85546 17.9206 9.89069 18.0048 9.9301C18.1842 10.0145 18.342 10.099 18.5214 10.2046C19.5362 10.8051 20.3474 11.6865 20.853 12.738C20.853 12.8154 20.9319 12.8998 20.9678 12.9913C21.1053 13.3186 21.2109 13.6579 21.2835 14.0047L21.3839 14.6451C21.3877 14.6849 21.3877 14.7249 21.3839 14.7647V15.2714V15.4051C21.3878 15.4473 21.3878 15.4896 21.3839 15.5318C21.3839 15.6233 21.3839 15.6866 21.3839 15.7851C21.2984 16.6851 20.9933 17.5516 20.4943 18.3115C19.8453 19.3304 18.8903 20.1269 17.7609 20.5916C17.4636 20.7129 17.1564 20.8094 16.8426 20.8801L16.6058 20.9294C16.3693 20.9768 16.1295 21.0073 15.8884 21.0209H15.501C12.4666 20.9469 9.97712 18.6409 9.72825 15.6735C9.47938 12.7062 11.5512 10.0321 14.5325 9.47267C14.7692 9.43749 15.0347 9.40934 15.2858 9.39526H15.501Z" fill="white"/>
</svg>
