<svg width="20" height="19" viewBox="0 0 20 19" fill="none" xmlns="http://www.w3.org/2000/svg">
<path d="M7.91269 7.1771L9.99989 0.753353L12.0871 7.1771C12.1473 7.36251 12.3201 7.48805 12.5151 7.48805H19.2694L13.805 11.4581C13.6473 11.5727 13.5813 11.7758 13.6416 11.9613L15.7288 18.385L10.2644 14.4149C10.1067 14.3003 9.89311 14.3003 9.73539 14.4149L4.27102 18.385L6.35822 11.9613C6.41847 11.7758 6.35247 11.5727 6.19475 11.4581L0.730382 7.48805H7.48471C7.67966 7.48805 7.85245 7.36251 7.91269 7.1771ZM19.3939 7.39759L19.3938 7.39768L19.3939 7.39759ZM15.7763 18.5314C15.7763 18.5313 15.7763 18.5312 15.7763 18.5312L15.7763 18.5314Z" stroke="#D6EC31" stroke-width="0.5"/>
</svg>
