<svg width="21" height="19" viewBox="0 0 21 19" fill="none" xmlns="http://www.w3.org/2000/svg">
<path d="M10.3653 0.529745C10.4252 0.345483 10.6859 0.345484 10.7458 0.529746L12.8805 7.09985C12.9073 7.18225 12.9841 7.23805 13.0707 7.23805H19.979C20.1727 7.23805 20.2533 7.48597 20.0965 7.59985L14.5076 11.6604C14.4375 11.7113 14.4082 11.8016 14.435 11.884L16.5697 18.4541C16.6296 18.6384 16.4187 18.7916 16.262 18.6777L10.6731 14.6172C10.603 14.5662 10.5081 14.5662 10.438 14.6172L4.84914 18.6777C4.69239 18.7916 4.4815 18.6384 4.54137 18.4541L6.67612 11.884C6.7029 11.8016 6.67357 11.7113 6.60347 11.6604L1.0146 7.59985C0.857862 7.48597 0.938417 7.23805 1.13216 7.23805H8.04038C8.12702 7.23805 8.20381 7.18225 8.23059 7.09985L10.3653 0.529745Z" fill="#D6EC31"/>
</svg>
