<svg width="26" height="26" viewBox="0 0 26 26" fill="none" xmlns="http://www.w3.org/2000/svg">
<path d="M20.9641 9.34265C20.407 9.58968 19.8078 9.75676 19.1793 9.83138C19.821 9.44693 20.3134 8.83862 20.5458 8.1126C19.9454 8.46878 19.2801 8.72716 18.5726 8.86643C18.0058 8.26276 17.1982 7.8855 16.3039 7.8855C14.5881 7.8855 13.1966 9.27707 13.1966 10.9928C13.1966 11.2364 13.2242 11.4735 13.2775 11.701C10.695 11.5715 8.40522 10.3345 6.87252 8.45394C6.6051 8.91278 6.45169 9.44693 6.45169 10.0163C6.45169 11.0941 7.00067 12.0456 7.83399 12.6027C7.32487 12.5867 6.84541 12.447 6.42666 12.2136C6.42643 12.2268 6.42643 12.24 6.42643 12.253C6.42643 13.7586 7.49798 15.0144 8.91921 15.2996C8.65874 15.371 8.38367 15.4088 8.10072 15.4088C7.90004 15.4088 7.70561 15.3895 7.51605 15.3534C7.91139 16.5876 9.05871 17.4861 10.4188 17.5113C9.3551 18.3449 8.01544 18.8415 6.55922 18.8415C6.30894 18.8415 6.06099 18.8269 5.81836 18.7979C7.19278 19.6799 8.82651 20.1941 10.5812 20.1941C16.2967 20.1941 19.4224 15.4593 19.4224 11.3527C19.4224 11.2181 19.4194 11.0839 19.4133 10.9509C20.0209 10.5129 20.5477 9.96579 20.9641 9.34265Z" fill="#32BDD6"/>
</svg>
