<svg width="26" height="26" viewBox="0 0 26 26" fill="none" xmlns="http://www.w3.org/2000/svg">
<path d="M14.6452 4.77148H11.3537C8.18574 4.77148 5.59375 7.36348 5.59375 10.5315V13C5.59375 15.2218 6.88975 17.2583 8.88517 18.2046V20.9612C8.88517 21.208 9.19374 21.3315 9.35831 21.1463L11.7446 18.76H14.6452C17.8131 18.76 20.4051 16.168 20.4051 13V10.5315C20.4051 7.36348 17.8131 4.77148 14.6452 4.77148ZM16.8051 15.5715L15.9617 16.3943C15.0772 17.2583 12.7937 16.2709 10.7777 14.2138C8.76174 12.1566 7.87717 9.85262 8.7206 8.98862L9.54345 8.16577C9.85202 7.8572 10.3663 7.87777 10.716 8.18634L11.9092 9.42062C12.3412 9.85262 12.156 10.5932 11.6006 10.7578C11.2097 10.8812 10.9423 11.3132 11.0657 11.704C11.2714 12.6092 12.4234 13.7612 13.2874 13.9875C13.6783 14.0698 14.1103 13.864 14.2543 13.4732C14.4394 12.9178 15.18 12.7532 15.5914 13.1852L16.7846 14.4195C17.1137 14.7075 17.1137 15.2218 16.8051 15.5715ZM13.74 8.68005C13.6577 8.68005 13.5754 8.68005 13.4932 8.70062C13.3492 8.72119 13.2052 8.59777 13.1846 8.45377C13.164 8.30977 13.2874 8.16577 13.4314 8.1452C13.5343 8.12462 13.6372 8.12462 13.74 8.12462C15.2417 8.12462 16.476 9.35891 16.476 10.8606C16.476 10.9635 16.476 11.0663 16.4554 11.1692C16.4349 11.3132 16.2909 11.4366 16.1469 11.416C16.0029 11.3955 15.8794 11.2515 15.9 11.1075C15.9 11.0252 15.9206 10.9429 15.9206 10.8606C15.9412 9.66748 14.9537 8.68005 13.74 8.68005ZM15.3857 10.8812C15.3857 11.0252 15.2623 11.1486 15.1183 11.1486C14.9743 11.1486 14.8509 11.0252 14.8509 10.8812C14.8509 10.2846 14.3572 9.79091 13.7606 9.79091C13.6166 9.79091 13.4932 9.66748 13.4932 9.52348C13.4932 9.37948 13.6166 9.25605 13.7606 9.25605C14.6452 9.23548 15.3857 9.97605 15.3857 10.8812ZM17.484 11.7658C17.4429 11.9098 17.2989 12.0126 17.1343 11.9715C16.9903 11.9303 16.908 11.7863 16.9491 11.6423C17.0109 11.3955 17.0314 11.1486 17.0314 10.8812C17.0314 9.07091 15.5503 7.58977 13.74 7.58977C13.6577 7.58977 13.5754 7.58977 13.4932 7.58977C13.3492 7.58977 13.2052 7.48691 13.2052 7.34291C13.2052 7.19891 13.308 7.05491 13.452 7.05491C13.5549 7.05491 13.6577 7.03434 13.74 7.03434C15.8589 7.03434 17.5869 8.76234 17.5869 10.8812C17.5869 11.1692 17.5457 11.4778 17.484 11.7658Z" fill="#32BDD6"/>
</svg>
