<svg width="26" height="26" viewBox="0 0 26 26" fill="none" xmlns="http://www.w3.org/2000/svg">
<path fill-rule="evenodd" clip-rule="evenodd" d="M12.5099 18.7018H13.5302C13.5302 18.7018 13.8384 18.668 13.9958 18.4983C14.1406 18.3426 14.136 18.0502 14.136 18.0502C14.136 18.0502 14.1161 16.6811 14.7515 16.4794C15.3779 16.2808 16.1822 17.8027 17.0348 18.3878C17.6795 18.8306 18.1694 18.7335 18.1694 18.7335L20.449 18.7018C20.449 18.7018 21.6415 18.6283 21.0761 17.6907C21.0297 17.614 20.7468 16.9971 19.3811 15.7295C17.9518 14.4028 18.1432 14.6174 19.865 12.3225C20.9136 10.9249 21.3328 10.0717 21.2019 9.70622C21.077 9.35815 20.3058 9.45015 20.3058 9.45015L17.739 9.46614C17.739 9.46614 17.5488 9.44019 17.4077 9.52454C17.2698 9.60727 17.181 9.80008 17.181 9.80008C17.181 9.80008 16.7748 10.8816 16.233 11.8014C15.0901 13.7422 14.6331 13.8446 14.4463 13.7241C14.0118 13.4432 14.1202 12.5958 14.1202 11.9937C14.1202 10.1129 14.4055 9.32872 13.5648 9.12572C13.2857 9.05829 13.0804 9.01379 12.3669 9.00661C11.4511 8.99711 10.6759 9.00939 10.237 9.22444C9.94502 9.36742 9.71978 9.68606 9.85696 9.70437C10.0266 9.72708 10.4108 9.80796 10.6145 10.0853C10.8775 10.4431 10.8683 11.2468 10.8683 11.2468C10.8683 11.2468 11.0194 13.4608 10.5153 13.7359C10.1693 13.9245 9.69475 13.5394 8.6758 11.7786C8.15369 10.8767 7.75951 9.87979 7.75951 9.87979C7.75951 9.87979 7.6835 9.69348 7.54793 9.59383C7.3834 9.47309 7.15352 9.43463 7.15352 9.43463L4.71448 9.45062C4.71448 9.45062 4.34834 9.46081 4.21393 9.62002C4.09435 9.76161 4.20443 10.0545 4.20443 10.0545C4.20443 10.0545 6.11394 14.522 8.27605 16.7733C10.2586 18.8374 12.5099 18.7018 12.5099 18.7018Z" fill="#32BDD6"/>
</svg>
