<svg width="500" height="434" viewBox="0 0 500 434" fill="none" xmlns="http://www.w3.org/2000/svg">
<path d="M1.06862 266.374C3.20589 258.412 4.27454 250.103 7.12424 242.487C14.6047 222.754 27.0721 207.176 48.0886 200.252C55.2129 197.829 61.6247 195.405 67.3241 190.213C70.1737 187.789 73.7359 185.712 77.298 184.328C80.1477 183.289 80.8601 181.558 80.8601 178.789C80.8601 135.515 95.4648 96.7421 122.893 62.8157C150.321 29.2355 185.23 7.42569 229.401 1.54051C272.858 -4.34468 312.398 6.73333 346.594 33.0436C393.971 69.3933 418.193 117.859 419.974 176.365C419.974 178.442 419.974 180.519 421.043 181.558C427.811 186.405 434.222 191.597 440.99 196.444C441.703 197.136 442.772 197.829 443.84 197.829C465.925 201.983 480.886 215.138 489.792 234.179C506.533 269.836 502.971 303.762 476.968 334.573C475.543 335.958 474.831 338.381 474.831 340.458C471.625 370.576 458.089 394.809 432.441 412.465C412.85 425.966 390.408 432.198 366.898 433.582C341.607 434.967 317.029 431.852 293.875 420.774C292.45 420.081 290.313 420.427 288.888 420.774C276.42 424.582 263.597 424.928 250.773 421.812C231.182 416.965 219.07 398.618 221.564 378.885C223.701 360.191 240.443 345.305 260.391 344.958C267.515 344.612 274.996 344.266 282.12 345.651C307.411 350.497 320.947 375.423 311.686 398.964C311.329 399.656 310.973 400.695 310.261 402.772C319.166 404.849 328.071 407.618 336.977 408.657C359.062 411.773 381.147 410.388 402.163 401.733C422.824 393.079 437.428 379.231 445.621 358.806C446.334 357.075 446.69 354.998 447.402 353.267C447.046 352.921 446.69 352.575 446.334 352.228C443.84 353.613 441.347 354.306 439.209 356.036C424.605 369.538 407.863 374.384 388.627 368.845C369.748 363.306 357.993 350.497 353.719 331.457C352.65 327.303 352.65 323.149 352.65 318.648C352.65 289.915 352.65 261.181 352.65 232.448C352.65 205.445 366.542 188.136 393.614 181.212C393.97 181.212 393.971 180.866 394.683 180.519C395.039 167.018 392.189 153.517 390.052 140.015C387.202 124.437 376.516 115.436 365.117 106.435C334.127 82.5484 299.218 67.3161 259.322 63.5081C238.306 61.4309 218.002 65.9314 198.054 72.5089C170.626 81.856 146.047 95.7035 124.674 115.09C116.838 122.014 111.851 129.976 110.069 140.015C108.645 147.632 106.864 155.248 105.795 162.864C105.083 168.749 105.083 174.634 104.726 180.866C106.864 181.558 108.645 181.904 110.426 182.597C131.086 188.482 146.047 205.445 146.759 226.562C147.472 259.45 147.472 292.684 146.759 325.572C146.047 346.343 134.292 360.883 114.344 368.153C94.7524 375.423 76.5856 370.923 61.2685 357.075C59.1312 355.344 56.6377 353.959 53.788 353.267C32.4153 348.074 18.523 334.919 9.61771 316.225C5.34317 307.57 3.91832 297.531 1.06862 288.184C0.712408 287.145 0.356212 286.107 0 285.068C1.06864 278.49 1.06862 272.259 1.06862 266.374ZM428.879 275.375C428.879 260.489 428.879 245.603 428.879 230.717C428.879 228.293 428.879 225.87 428.523 223.793C425.673 211.676 413.918 203.022 401.807 204.406C388.271 205.791 378.297 215.831 378.297 228.986C378.297 259.45 378.297 289.915 378.297 320.379C378.297 335.265 389.34 346.689 403.588 346.689C418.193 346.689 428.879 335.611 428.879 320.379C429.235 305.493 428.879 290.261 428.879 275.375ZM122.893 275.721C122.893 260.835 122.893 245.603 122.893 230.717C122.893 215.484 111.851 204.06 97.2459 204.406C82.6412 204.753 71.9548 215.484 71.9548 230.717C71.9548 260.489 71.9548 290.261 71.9548 320.379C71.9548 322.802 71.9548 325.226 72.6672 327.303C75.5169 339.419 87.2719 347.728 99.3831 346.689C112.919 345.305 122.537 335.265 122.537 322.456C122.893 306.532 122.893 291.299 122.893 275.721ZM361.199 82.5484C340.895 53.1224 294.231 19.5423 237.593 25.0813C202.328 28.5431 148.184 60.0462 139.635 83.2408C213.727 35.1207 287.463 35.1207 361.199 82.5484ZM46.6638 322.11C46.6638 290.607 46.6638 259.796 46.6638 228.639C18.8792 248.026 19.5917 303.07 46.6638 322.11ZM454.17 322.456C483.024 301.339 480.53 246.295 454.17 228.986C454.17 259.796 454.17 290.953 454.17 322.456ZM268.584 399.656C271.434 399.656 274.283 399.656 276.777 399.31C284.97 398.271 290.669 392.04 290.313 384.078C290.313 376.462 284.613 369.884 276.42 369.192C271.434 368.845 266.09 368.845 260.747 369.192C252.554 369.884 246.855 376.462 246.499 384.078C246.142 391.694 252.198 398.271 260.035 399.31C263.241 399.656 266.09 399.656 268.584 399.656Z" fill="#76ADD0"/>
<path d="M230.565 177.843L250 135.993L269.435 177.843C271.621 182.549 276.084 185.792 281.235 186.416L327.042 191.968L293.246 223.384C289.446 226.917 287.741 232.163 288.739 237.255L297.615 282.536L257.293 260.103C252.758 257.58 247.242 257.58 242.707 260.103L202.385 282.536L211.261 237.255C212.259 232.163 210.554 226.917 206.754 223.384L172.958 191.968L218.765 186.416C223.916 185.792 228.379 182.549 230.565 177.843Z" stroke="#FFBD39" stroke-width="16"/>
</svg>
