<svg width="26" height="39" viewBox="0 0 26 39" fill="none" xmlns="http://www.w3.org/2000/svg">
<path d="M14.8649 0C16.4865 0 17.8739 0.0364141 19.027 0.109242C20.1802 0.182073 21.2432 0.309524 22.2162 0.491597C23.1892 0.637255 24.1982 0.855742 25.2432 1.14706L24.7027 5.2437C23.6216 5.13445 22.6126 5.06162 21.6757 5.02521C20.7387 4.95238 19.7297 4.89776 18.6486 4.86134C17.6036 4.82493 16.3423 4.80672 14.8649 4.80672C12.5586 4.80672 10.7387 5.2619 9.40541 6.17227C8.07207 7.08263 7.11712 8.61205 6.54054 10.7605C6 12.8725 5.72973 15.7857 5.72973 19.5C5.72973 23.2143 6 26.1457 6.54054 28.2941C7.11712 30.4062 8.07207 31.9174 9.40541 32.8277C10.7387 33.7381 12.5586 34.1933 14.8649 34.1933C17.2072 34.1933 19.1712 34.1569 20.7568 34.084C22.3784 33.9748 23.9459 33.8109 25.4595 33.5924L26 37.6891C24.4144 38.1625 22.7748 38.4902 21.0811 38.6723C19.4234 38.8908 17.3514 39 14.8649 39C11.2252 39 8.32432 38.381 6.16216 37.1429C4 35.8683 2.43243 33.8109 1.45946 30.9706C0.486486 28.1303 0 24.3067 0 19.5C0 14.6933 0.486486 10.8697 1.45946 8.02941C2.43243 5.18908 4 3.14986 6.16216 1.91176C8.32432 0.637254 11.2252 0 14.8649 0Z" fill="#2F4E54"/>
</svg>
