<?xml version="1.0" encoding="utf-8"?>
<!-- Generator: Adobe Illustrator 22.1.0, SVG Export Plug-In . SVG Version: 6.00 Build 0)  -->
<svg version="1.1" id="Слой_1" xmlns="http://www.w3.org/2000/svg" xmlns:xlink="http://www.w3.org/1999/xlink" x="0px" y="0px"
	 viewBox="0 0 212.5 210.6" style="enable-background:new 0 0 212.5 210.6;" xml:space="preserve">
<style type="text/css">
	.st0{fill:#003B67;}
	.st1{fill:#2CD3FE;}
</style>
<g>
	<path class="st0" d="M66.9,31.4c-0.4,0.2-0.9,0.4-1.4,0.4c-8.1,0-16.2,0-24.4,0c-0.1,0-0.2,0-0.4-0.1c0.1-0.4,0.4-0.4,0.7-0.5
		C62.7,20.9,84,10.7,105.3,0.5c0.2-0.1,0.6-0.1,0.6-0.5c0.2,0,0.5,0,0.7,0c1.4,1.1,3.1,1.6,4.6,2.4c19.8,9.6,39.7,19.1,59.5,28.6
		c0.3,0.2,0.7,0.4,1.1,0.6c-0.4,0.3-0.7,0.2-1,0.2c-7.8,0-15.6,0-23.4,0c-0.6,0-1.2,0-1.7-0.4c-2.2-0.7-4.2-1.8-6.2-2.8
		c-5.8-2.8-11.6-5.6-17.4-8.4c-4.6-2.2-9.2-4.4-13.8-6.7c-1.4-0.7-2.6-0.7-3.9,0c-7.8,3.9-15.8,7.6-23.6,11.5
		c-3.7,1.8-7.4,3.6-11.1,5.3C68.7,30.8,67.8,31.1,66.9,31.4z"/>
	<path class="st0" d="M156.3,141.8c0.5,0,0.3,0.4,0.3,0.5c0,5,0,9.9,0,14.9c0,0.5-0.2,0.9-0.6,1.3c-10.3,10.8-20.6,21.7-30.8,32.5
		c-6,6.4-12.1,12.8-18.1,19.2c-0.6,0.6-0.9,0.7-1.5,0c-11.1-11.8-22.3-23.6-33.5-35.3c-9.3-9.8-18.6-19.6-27.9-29.4
		c-1.7-1.8-3.4-3.7-5.2-5.5c-0.5-0.5-0.4-0.8,0.1-1.2c2.3-2.2,4.5-4.5,6.7-6.7c0.3-0.3,0.5-0.8,1-0.3c1.8,1.7,3.5,3.5,5.2,5.3
		c2.4,2.5,4.8,5,7.2,7.5c4.5,4.7,9,9.5,13.5,14.2c2.8,2.9,5.5,5.9,8.3,8.8c4.5,4.7,9,9.5,13.5,14.3c2.7,2.9,5.4,5.8,8.2,8.6
		c1,1,1.9,2.2,3,3.3c0.4,0.4,0.7,0.4,1,0c3.4-3.8,7-7.3,10.4-11.1c1.5-1.7,3.2-3.4,4.8-5c2.3-2.4,4.6-4.9,6.9-7.3
		c4.6-4.8,9.1-9.6,13.7-14.4c2.8-2.9,5.5-5.8,8.2-8.7C152.6,145.3,154.4,143.4,156.3,141.8z"/>
	<path class="st1" d="M156.3,141.8c-2.2,2.4-4.4,4.7-6.6,7.1c-9.7,10.3-19.5,20.6-29.3,30.9c-4.5,4.7-8.9,9.4-13.3,14.1
		c-0.6,0.7-0.9,0.7-1.6,0c-9.7-10.3-19.4-20.5-29.1-30.7c-6.7-7.1-13.5-14.2-20.2-21.3c-3-3.2-6-6.3-9-9.5c-0.2-0.2-0.3-0.4-0.4-0.6
		c4.8,3.5,9.6,7,14.4,10.6c14.9,11.1,29.9,22.1,44.8,33.2c0.7,0.5,1.1,0.4,1.7,0c15.8-11,31.7-22.1,47.5-33.1
		C155.5,142.2,155.9,142,156.3,141.8z"/>
	<path class="st1" d="M66.9,31.4c3-1.7,6.1-3.1,9.2-4.6c9.6-4.7,19.2-9.2,28.8-13.9c0.9-0.5,1.7-0.5,2.7,0
		c10.6,5.2,21.3,10.3,31.9,15.4c2.1,1,4.2,1.9,6.2,3.1c-2.8-0.5-5.5-1.5-8.2-2.3c-10.1-2.9-20.2-5.9-30.3-8.9
		c-0.6-0.2-1.2-0.1-1.7,0.1C93.1,24,80.8,27.5,68.6,31.1C68,31.3,67.5,31.3,66.9,31.4z"/>
	<path class="st0" d="M212.4,97.6c-7-17.9-13.9-35.7-20.9-53.6c-0.3-0.8-0.6-1.2-1.6-1.2c-20.5,0-41,0-61.5,0
		c-0.7,0-1.2,0.2-1.7,0.7c-14,14-28,28-42,42c-0.2,0.2-0.6,0.3-0.4,0.8c0.4,0,0.9,0,1.3,0c13.8,0,27.5,0,41.3,0c3.2,0,6.4,0.3,9.5,1
		c12.3,2.9,21.6,9.7,26.8,21.4c3.1,6.8,4.3,14.1,4.5,21.5c0.1,5.1,0,10.3,0,15.6c0.3-0.2,0.4-0.2,0.5-0.3
		c9.1-9.6,18.1-19.1,27.2-28.7c5.6-5.9,11.1-11.8,16.7-17.7C212.6,98.7,212.6,98.3,212.4,97.6z M199.1,96.8
		c-6.7,7-13.4,14.1-20.1,21.1c-0.3,0.3-0.6,1.1-1.3,0.5c-1.6-8.8-4.7-17.1-10.2-24.2c-7.4-9.5-17.2-15.2-28.8-17.8
		c-3.9-0.9-7.9-1.3-11.9-1.2c-5.1,0.1-10.2,0-15.4,0c0-0.5,0.4-0.6,0.6-0.9c6.4-6.5,12.9-12.9,19.3-19.4c0.5-0.5,1.1-0.8,1.9-0.8
		c16.3,0,32.6,0,48.9,0c0.4,0,1-0.2,1.3,0.3c0,0,0,0,0,0c0,0,0,0,0,0c1.7,3.7,3,7.5,4.5,11.3c3.8,9.8,7.6,19.5,11.4,29.3
		C199.6,95.7,199.7,96.2,199.1,96.8z"/>
	<path class="st1" d="M199.4,95c-3.8-9.8-7.6-19.5-11.4-29.3c-1.5-3.8-2.8-7.6-4.5-11.3c0,0,0,0,0,0c0.3,3.5,0.7,7,1,10.5
		c0.8,7.7,1.7,15.5,2.5,23.2c0.1,1,0.4,2.1,0,3.2c-2.9,8.7-5.8,17.4-8.7,26.1c-0.1,0.3-0.1,0.8-0.6,0.9c0.7,0.7,1-0.1,1.3-0.5
		c6.7-7,13.4-14.1,20.1-21.1C199.7,96.2,199.6,95.7,199.4,95z"/>
	<path class="st0" d="M118.9,42.9c-0.4,0-0.8,0-1.1,0c-31.7,0-63.3,0-95,0c-1,0-1.4,0.3-1.8,1.2C14.1,62,7.1,79.8,0.2,97.6
		c-0.3,0.8-0.1,1.2,0.4,1.8c3.5,3.7,7.1,7.4,10.6,11.1c6.3,6.6,12.6,13.2,18.8,19.9c0.8,0.9,1.2,0.8,2,0c2.9-3,5.9-6,8.9-9
		C66.5,95.6,92.3,69.8,118.1,44c0.3-0.3,0.7-0.5,1.1-0.7C119.1,43.2,119,43,118.9,42.9z M91.5,54.8C71.7,74.7,51.8,94.5,32,114.4
		c-0.2,0.2-0.5,0.4-0.7,0.6c-0.4,0.2-0.6-0.2-0.8-0.4c-5.7-6-11.3-11.9-17-17.9c-0.4-0.4-0.5-0.8-0.3-1.4
		c5.4-13.7,10.7-27.4,16-41.1c0,0,0,0,0,0c0,0,0,0,0,0c0,0,0,0,0,0c0,0,0,0,0,0c0.3-0.3,0.7-0.2,1-0.2c20.4,0,40.7,0,61.1,0
		c0.2,0,0.5,0,0.7,0C92.1,54.5,91.7,54.6,91.5,54.8z"/>
	<path class="st1" d="M91.3,54c-20.4,0-40.7,0-61.1,0c-0.3,0-0.7-0.1-1,0.2c0,0,0,0,0,0c0,0,0,0,0,0c0.2,0,0.4,0,0.6,0.1
		c11.8,2.8,23.7,5.5,35.5,8.3c1.3,0.3,1.3,0.3,0.6,1.4c-9.2,13.6-18.5,27.1-27.7,40.7c-2.3,3.4-4.6,6.9-6.9,10.3
		c0.2-0.2,0.5-0.4,0.7-0.6c19.9-19.8,39.7-39.7,59.5-59.5c0.2-0.2,0.6-0.3,0.5-0.8C91.8,54,91.5,54,91.3,54z"/>
</g>
</svg>
