<svg width="41" height="41" viewBox="0 0 41 41" fill="none" xmlns="http://www.w3.org/2000/svg">
<path fill-rule="evenodd" clip-rule="evenodd" d="M27.26 0.5H6.39881C3.13732 0.5 0.5 3.24867 0.5 6.63657V6.71875H12.3064H25.6864C29.9413 6.71875 32.2973 8.90125 32.4819 11.7869C32.6841 14.9556 30.8292 17.5856 25.5194 17.5856H20.3415C20.1041 17.5856 19.981 17.8778 20.1393 18.0604L25.1326 23.8043C37.1939 23.8043 40.5521 18.517 40.4994 12.0517C40.4379 4.53625 33.4138 0.5 27.26 0.5Z" fill="#0054A8"/>
<path fill-rule="evenodd" clip-rule="evenodd" d="M23.0505 23.5527L19.6283 19.6326L17.992 17.7546C17.7896 17.5267 17.8072 17.1803 18.0184 16.9615L19.6635 15.357L10.0391 13.3696L11.2971 23.27L12.7751 21.8752C12.995 21.6656 13.3381 21.6838 13.5405 21.9117L14.9832 23.5618L23.4288 33.2434C23.4288 33.2525 23.4376 33.2525 23.4376 33.2616C23.9567 33.9362 24.5197 34.5835 25.1179 35.1761C28.4082 38.4671 32.8773 40.5001 37.8215 40.5001L23.0505 23.5527Z" fill="#E88207"/>
</svg>
