<svg width="41" height="39" viewBox="0 0 41 39" fill="none" xmlns="http://www.w3.org/2000/svg">
<path fill-rule="evenodd" clip-rule="evenodd" d="M33.3722 18.5129C33.3194 18.6611 33.2423 18.8788 33.1418 19.1618C32.1572 23.1715 30.8325 27.1327 29.168 31.0132C31.2049 30.7789 33.224 30.4677 35.2224 30.0838C36.0532 27.7781 36.9923 25.1702 37.8348 22.8327C36.4128 21.3416 34.926 19.8996 33.3722 18.5129Z" fill="#333333"/>
<path fill-rule="evenodd" clip-rule="evenodd" d="M18.5009 8.034C16.7728 7.06884 15.0145 6.17341 13.2269 5.35474L7.83398 9.29251C8.03379 11.2835 8.30933 13.2625 8.66573 15.2234C9.85216 14.2052 11.0692 13.2159 12.3251 12.2637C14.3278 10.7452 16.3892 9.33561 18.5009 8.034Z" fill="#333333"/>
<path fill-rule="evenodd" clip-rule="evenodd" d="M19.5284 33.857C17.8424 33.8384 16.1659 33.765 14.499 33.648C15.2738 35.2083 16.1083 36.743 17.0015 38.2484C19.2513 38.2494 21.7438 38.25 24.0007 38.2504C24.8886 36.7503 25.7221 35.2146 26.4993 33.645C24.502 33.7876 22.4908 33.8623 20.4678 33.8623C20.1545 33.8623 19.8425 33.8607 19.5284 33.857Z" fill="#333333"/>
<path fill-rule="evenodd" clip-rule="evenodd" d="M25.835 38.2503C28.6914 38.2503 30.7755 38.2485 30.8095 38.2443C31.8038 38.1257 32.6274 37.4782 32.9756 36.6001C32.9832 36.5812 33.6145 34.8138 34.5018 32.3291C32.4839 32.6904 30.4457 32.9774 28.3905 33.1865C27.5983 34.9117 26.7454 36.6004 25.835 38.2503Z" fill="#333333"/>
<path fill-rule="evenodd" clip-rule="evenodd" d="M38.6839 21.1445C39.6814 18.4322 40.4058 16.4615 40.4058 16.4615C40.4651 16.2497 40.4998 16.0292 40.4998 15.7998C40.4998 15.0372 40.1478 14.3529 39.5911 13.8788L34.8272 10.6179C34.583 12.6478 34.2519 14.672 33.833 16.6857C35.5207 18.1153 37.1407 19.6013 38.6839 21.1445Z" fill="#333333"/>
<path fill-rule="evenodd" clip-rule="evenodd" d="M6.50012 16.7979C6.10325 14.747 5.79044 12.6855 5.55777 10.6179L1.77556 13.4371L1.35802 13.7485C0.832539 14.2295 0.5 14.9275 0.5 15.7072C0.5 15.953 0.535267 16.1899 0.596801 16.4159C0.596801 16.4159 1.25842 18.3994 2.17697 21.1445C3.55486 19.6426 4.99842 18.194 6.50012 16.7979Z" fill="#333333"/>
<path fill-rule="evenodd" clip-rule="evenodd" d="M3.16602 23.2218C3.95257 25.4516 4.83171 27.9382 5.62206 30.1642C7.45224 30.5134 9.30114 30.797 11.1662 31.0132C9.52461 27.1378 8.22692 23.179 7.28043 19.1709C5.85707 20.4674 4.48431 21.8183 3.16602 23.2218Z" fill="#333333"/>
<path fill-rule="evenodd" clip-rule="evenodd" d="M32.3317 15.2234C32.6921 13.2235 32.9691 11.214 33.1669 9.19981L27.8856 5.35474C26.0535 6.1909 24.2566 7.09744 22.5 8.07288C24.6387 9.39021 26.7268 10.8146 28.7565 12.3488C29.9816 13.2749 31.1707 14.2361 32.3317 15.2234Z" fill="#333333"/>
<path fill-rule="evenodd" clip-rule="evenodd" d="M25.8329 3.96806L22.0982 1.33397L21.8119 1.13202C21.4187 0.890946 20.9541 0.749512 20.4543 0.749512C20.0865 0.749512 19.738 0.826415 19.4218 0.962833C19.0929 1.1046 18.8019 1.31224 18.5639 1.56769L15.166 3.96438C16.9755 4.79527 18.7564 5.69569 20.5036 6.67068C22.248 5.69736 24.0265 4.79794 25.8329 3.96806Z" fill="#333333"/>
<path fill-rule="evenodd" clip-rule="evenodd" d="M6.50098 32.3291C7.39806 34.9972 8.06041 36.9422 8.11594 37.0342C8.51208 37.688 9.17823 38.1488 9.95471 38.2478C9.95471 38.2478 11.8592 38.2488 14.5011 38.2503C13.6397 36.588 12.8324 34.8872 12.0823 33.1493C10.2055 32.9465 8.34415 32.6734 6.50098 32.3291Z" fill="#333333"/>
</svg>
